<?xml version="1.0" encoding="utf-8"?>
<!-- Generator: Adobe Illustrator 16.2.1, SVG Export Plug-In . SVG Version: 6.00 Build 0)  -->
<!DOCTYPE svg PUBLIC "-//W3C//DTD SVG 1.1//EN" "http://www.w3.org/Graphics/SVG/1.1/DTD/svg11.dtd">
<svg version="1.1" id="Layer_1" xmlns="http://www.w3.org/2000/svg" xmlns:xlink="http://www.w3.org/1999/xlink" x="0px" y="0px"
	 width="164px" height="40px" viewBox="0 0 164 40" enable-background="new 0 0 164 40" xml:space="preserve">
<g>
	<g>
		<g>
			<path fill="#FFFFFF" d="M46.713,28.049c-0.066-0.261-0.362-0.524-0.689-0.358c-0.788,0.358-2.297,0.749-3.442,0.749
				c-5.445,0-7.74-4.26-7.74-9.048c0-4.098,1.641-8.13,6.265-8.13c1.704,0,2.72,0.422,2.915,1.506l0.332,1.803
				c0.064,0.294,0.261,0.426,0.489,0.426h1.282c0.294,0,0.458-0.165,0.458-0.459V9.521c0-0.262-0.197-0.521-0.428-0.587
				c-1.18-0.328-3.213-0.528-4.328-0.528c-6.95,0-12.164,4.464-12.164,11.642c0,6.691,4.854,11.576,11.77,11.576
				c2.232,0,4.463-0.72,5.412-1.115c0.231-0.099,0.294-0.427,0.231-0.687L46.713,28.049z"/>
			<path fill="#FFFFFF" d="M59.73,25.983c0,1.277-1.018,2.655-2.821,2.655c-1.54,0-2.62-0.982-2.62-2.391
				c0-1.77,1.309-3.179,5.144-3.179c0.229,0,0.297,0.063,0.297,0.291L59.73,25.983L59.73,25.983z M66.025,29.002
				c-0.029-0.329-0.228-0.431-0.491-0.364c-0.261,0.069-0.526,0.136-0.758,0.136c-0.554,0-0.849-0.395-0.849-1.021V19.95
				c0-4.46-2.556-6.164-6.653-6.164c-2.005,0-4.103,0.36-5.608,0.984c-0.329,0.097-0.395,0.357-0.329,0.656l0.392,1.965
				c0.064,0.428,0.396,0.428,0.724,0.261c0.884-0.489,2.163-0.917,3.608-0.917c2.099,0,3.706,0.757,3.706,2.821v0.656
				c0,0.167-0.067,0.458-0.332,0.458c-5.047,0-9.311,1.606-9.311,6.165c0,2.724,1.902,4.69,4.853,4.69
				c2.593,0,4.034-1.183,5.051-2.265h0.134c0.129,1.347,0.85,2.265,2.62,2.265c1.147,0,2.624-0.297,3.149-0.49
				c0.197-0.066,0.328-0.198,0.294-0.526L66.025,29.002z"/>
			<path fill="#FFFFFF" d="M74.062,19.721c0-1.64,1.343-2.654,3.015-2.654c2.69,0,3.835,2.687,3.835,5.541
				c0,2.751-1.014,5.935-4.227,5.935c-1.74,0-2.623-0.821-2.623-2.163V19.721z M76.551,37.72c0.295,0,0.462-0.159,0.462-0.455
				v-0.789c0-0.228-0.134-0.456-0.429-0.489l-1.963-0.266c-0.299-0.063-0.56-0.359-0.56-1.019v-3.638
				c0.361,0.035,1.244,0.101,1.804,0.101c6.194,0,9.641-3.838,9.641-9.544c0-4.722-2.723-7.805-6.525-7.805
				c-2.459,0-4.036,1.312-5.181,2.494h-0.134l-0.198-1.834c-0.031-0.329-0.193-0.558-0.558-0.491l-5.343,0.52
				c-0.296,0.036-0.459,0.2-0.459,0.495v0.823c0,0.226,0.1,0.425,0.427,0.489l1.509,0.23c0.523,0.094,0.69,0.653,0.69,1.112v17.049
				c0,0.659-0.264,0.956-0.561,1.019l-1.374,0.266c-0.295,0.064-0.429,0.262-0.429,0.489v0.788c0,0.297,0.164,0.456,0.46,0.456
				H76.551L76.551,37.72L76.551,37.72z"/>
			<path fill="#FFFFFF" d="M98.918,28.378c-0.035-0.329-0.264-0.424-0.556-0.362c-0.656,0.197-1.312,0.362-2.003,0.362
				c-1.834,0-2.753-1.245-2.753-3.02v-7.836c0-0.229,0.163-0.358,0.459-0.358h4.1c0.128,0,0.228-0.197,0.228-0.294v-2.035
				c0-0.13-0.1-0.261-0.228-0.261h-4.2c-0.196,0-0.359-0.166-0.359-0.361v-3.473c0-0.365-0.101-0.593-0.524-0.462l-3.217,0.954
				c-0.358,0.132-0.456,0.392-0.456,0.75v2.071c0,0.259-0.036,0.522-0.429,0.522h-2.001c-0.129,0-0.228,0.164-0.228,0.294
				l-0.198,1.868c-0.033,0.265,0.032,0.428,0.231,0.428h2.163c0.167,0,0.36,0.13,0.36,0.358v8.823c0,3.312,2.296,5.215,5.511,5.215
				c1.31,0,3.013-0.33,4.063-0.82c0.198-0.103,0.328-0.297,0.3-0.622L98.918,28.378z"/>
			<path fill="#FFFFFF" d="M111.048,18.606c0,2.326-2.196,3.083-4.36,3.083c-0.458,0-0.951-0.033-1.344-0.068
				c-0.325-0.031-0.394-0.101-0.394-0.426c-0.065-2.062,0.952-5.15,3.611-5.15C109.902,16.047,111.048,17.164,111.048,18.606
				 M114.525,27.818c-0.064-0.26-0.36-0.459-0.686-0.293c-0.821,0.428-2.001,0.95-3.74,0.95c-2.292,0-4.821-1.507-4.981-4.066
				c-0.036-0.329,0.13-0.395,0.391-0.36c0.688,0.031,1.411,0.064,2.165,0.064c3.441,0,7.606-1.506,7.606-5.279
				c0-3.309-3.017-5.146-6.165-5.146c-4.721,0-8.624,3.671-8.624,8.95c0,5.345,2.984,8.984,8.916,8.984
				c1.806,0,3.84-0.457,5.219-1.28c0.229-0.128,0.36-0.392,0.297-0.653L114.525,27.818z"/>
			<path fill="#FFFFFF" d="M126.756,31.166c0.296,0,0.46-0.167,0.46-0.458V29.92c0-0.23-0.095-0.429-0.427-0.495l-1.967-0.261
				c-0.296-0.032-0.558-0.36-0.558-1.017v-7.574c0-1.703,1.477-2.754,3.082-2.754c0.624,0,1.475,0.133,2.001,0.328
				c0.327,0.098,0.623-0.098,0.657-0.328l0.654-3.083c0.067-0.36,0-0.558-0.228-0.655c-0.427-0.198-1.018-0.265-1.542-0.265
				c-2.134,0-3.64,1.379-4.853,3.216H123.9l-0.291-2.493c-0.034-0.361-0.163-0.589-0.526-0.555l-5.345,0.555
				c-0.294,0.033-0.457,0.197-0.457,0.493v0.789c0,0.226,0.097,0.425,0.426,0.489l1.574,0.265c0.523,0.065,0.69,0.652,0.69,1.111
				v10.461c0,0.657-0.264,0.953-0.559,1.018l-1.379,0.26c-0.295,0.066-0.425,0.264-0.425,0.495v0.786
				c0,0.292,0.167,0.459,0.461,0.459L126.756,31.166L126.756,31.166L126.756,31.166z"/>
			<path fill="#FFFFFF" d="M141.348,31.166c0.296,0,0.461-0.167,0.461-0.458V29.92c0-0.23-0.096-0.429-0.428-0.495l-1.965-0.261
				c-0.297-0.032-0.561-0.36-0.561-1.017v-7.574c0-1.703,1.479-2.754,3.084-2.754c0.622,0,1.478,0.133,2.002,0.328
				c0.326,0.098,0.618-0.098,0.655-0.328l0.657-3.083c0.067-0.36,0-0.558-0.229-0.655c-0.428-0.198-1.017-0.265-1.54-0.265
				c-2.136,0-3.643,1.379-4.854,3.216h-0.135l-0.292-2.493c-0.036-0.361-0.167-0.589-0.528-0.555l-5.344,0.555
				c-0.292,0.033-0.457,0.197-0.457,0.493v0.789c0,0.226,0.096,0.425,0.424,0.489l1.577,0.265c0.523,0.065,0.686,0.652,0.686,1.111
				v10.461c0,0.657-0.262,0.953-0.56,1.018l-1.375,0.26c-0.295,0.066-0.425,0.264-0.425,0.495v0.786
				c0,0.292,0.162,0.459,0.461,0.459L141.348,31.166L141.348,31.166L141.348,31.166z"/>
			<path fill="#FFFFFF" d="M156.632,25.983c0,1.277-1.019,2.655-2.823,2.655c-1.539,0-2.623-0.982-2.623-2.391
				c0-1.77,1.311-3.179,5.149-3.179c0.229,0,0.297,0.063,0.297,0.291V25.983L156.632,25.983z M162.925,29.002
				c-0.032-0.329-0.23-0.431-0.489-0.364c-0.264,0.069-0.526,0.136-0.756,0.136c-0.558,0-0.853-0.395-0.853-1.021V19.95
				c0-4.46-2.556-6.164-6.657-6.164c-2.001,0-4.1,0.36-5.608,0.984c-0.329,0.097-0.392,0.357-0.329,0.656l0.394,1.965
				c0.069,0.428,0.397,0.428,0.724,0.261c0.888-0.489,2.164-0.917,3.608-0.917c2.097,0,3.702,0.757,3.702,2.821v0.656
				c0,0.167-0.062,0.458-0.325,0.458c-5.051,0-9.312,1.606-9.312,6.165c0,2.724,1.903,4.69,4.855,4.69
				c2.586,0,4.029-1.183,5.047-2.265h0.131c0.13,1.347,0.854,2.265,2.627,2.265c1.145,0,2.619-0.297,3.146-0.49
				c0.198-0.066,0.324-0.198,0.293-0.526L162.925,29.002z"/>
		</g>
	</g>
	<path fill="#88BDDF" enable-background="new    " d="M0.434,18.87h5.758c0.201,0,0.375-0.138,0.422-0.334
		c0.553-2.331,2.612-3.96,5.008-3.96s4.455,1.629,5.008,3.96c0.047,0.196,0.222,0.334,0.421,0.334h5.75c0.006,0,0.011,0,0.014,0
		c0.239,0,0.432-0.194,0.432-0.434c0-0.052-0.04-0.339-0.043-0.357c-0.317-3.913-3.349-10.996-11.329-17.991
		c-0.163-0.142-0.417-0.103-0.58,0.039c-0.081,0.07-8.227,7.074-10.797,15.964c-0.158,0.466-0.275,0.894-0.359,1.3
		c0,0-0.033,0.146-0.066,0.399c-0.009,0.046-0.069,0.592-0.069,0.592c-0.015,0.125,0.023,0.248,0.106,0.341
		C0.192,18.816,0.31,18.87,0.434,18.87z"/>
	<path fill="#59A3D2" enable-background="new    " d="M22.814,21.131h-5.758c-0.2,0-0.375,0.136-0.421,0.332
		c-0.553,2.332-2.612,3.962-5.008,3.962c-2.395,0-4.456-1.63-5.009-3.962c-0.046-0.196-0.22-0.332-0.421-0.332H0.447
		c-0.006,0-0.011,0-0.014,0c-0.239,0-0.433,0.193-0.433,0.433c0,0.051,0.04,0.34,0.042,0.357c0.317,3.912,3.351,10.996,11.329,17.99
		c0.165,0.143,0.417,0.104,0.581-0.037c0.081-0.072,8.226-7.075,10.797-15.964c0.157-0.468,0.274-0.896,0.359-1.302
		c0,0,0.032-0.145,0.067-0.398c0.006-0.049,0.067-0.594,0.067-0.594c0.015-0.123-0.023-0.246-0.105-0.339
		C23.056,21.184,22.938,21.131,22.814,21.131z"/>
</g>
</svg>
