<?xml version="1.0" encoding="utf-8"?>
<!-- Generator: Adobe Illustrator 16.2.1, SVG Export Plug-In . SVG Version: 6.00 Build 0)  -->
<!DOCTYPE svg PUBLIC "-//W3C//DTD SVG 1.1//EN" "http://www.w3.org/Graphics/SVG/1.1/DTD/svg11.dtd">
<svg version="1.1" id="Layer_1" xmlns="http://www.w3.org/2000/svg" xmlns:xlink="http://www.w3.org/1999/xlink" x="0px" y="0px"
	 width="112.733px" height="127.667px" viewBox="0 0 112.733 127.667" enable-background="new 0 0 112.733 127.667"
	 xml:space="preserve">
<g>
	<g>
		<g opacity="0.12">
			<path d="M36.57,1.099C5.016,11.196-9.222,51.884,6.334,80.433c8.917,16.365,27.888,23.35,44.963,27.662
				c18.976,4.791,40.314,5.143,59.268-0.697c1.908-0.59,2.636-1.213,1.437-2.656c-1.717-2.064-4.588-2.979-6.961-4.037
				c-3.99-1.781-7.792-3.844-9.982-7.789c-1.309,1.01-2.618,2.02-3.926,3.029c4.482,5.309,13.342,6.922,16.943,12.826
				c0.129-1.01,0.26-2.02,0.391-3.029c-5.475,5.439-9.205,10.131-10.074,18.029c-0.354,3.203,6.709,5.572,6.506,2.39
				c-0.667-10.43,2.723-12.53,7.104-16.884c0.785-0.779,0.973-2.074,0.391-3.029c-3.992-6.545-13.661-6.85-15.994-15.85
				c-0.734-2.833-6.993,2.633-5.657,5.041c2.03,3.656,5.079,6.096,8.698,8.096c2.715,1.5,6.994,2.299,9.027,4.742
				c0.367-1.393,0.734-2.785,1.102-4.178c-17.334,5.342-36.659,3.686-54.119-0.158c-16.133-3.553-34.286-9.643-43.682-24.156
				c-16.392-25.316,0.639-58.67,28.465-70.054C47.565,6.731,39.649,0.114,36.57,1.099L36.57,1.099z"/>
		</g>
		<g>
			<path fill="#ED833F" d="M36.57,0.099C5.016,10.196-9.222,50.884,6.334,79.433c8.917,16.365,27.888,23.35,44.963,27.662
				c18.976,4.791,40.314,5.143,59.268-0.697c1.908-0.59,2.636-1.213,1.437-2.656c-1.717-2.064-4.588-2.979-6.961-4.037
				c-3.99-1.781-7.792-3.844-9.982-7.789c-1.309,1.01-2.618,2.02-3.926,3.029c4.482,5.309,13.342,6.922,16.943,12.826
				c0.129-1.01,0.26-2.02,0.391-3.029c-5.475,5.439-9.205,10.131-10.074,18.029c-0.354,3.203,6.709,5.572,6.506,2.39
				c-0.667-10.43,2.723-12.53,7.104-16.884c0.785-0.779,0.973-2.074,0.391-3.029c-3.992-6.545-13.661-6.85-15.994-15.85
				c-0.734-2.833-6.993,2.633-5.657,5.041c2.03,3.656,5.079,6.096,8.698,8.096c2.715,1.5,6.994,2.299,9.027,4.742
				c0.367-1.393,0.734-2.785,1.102-4.178c-17.334,5.342-36.659,3.686-54.119-0.158c-16.133-3.553-34.286-9.643-43.682-24.156
				c-16.392-25.316,0.639-58.67,28.465-70.054C47.565,5.731,39.649-0.886,36.57,0.099L36.57,0.099z"/>
		</g>
	</g>
</g>
</svg>
